<?xml version="1.0" encoding="UTF-8"?><svg id="a" xmlns="http://www.w3.org/2000/svg" xmlns:xlink="http://www.w3.org/1999/xlink" viewBox="0 0 500 149"><defs><style>.c{fill:#fff;}.d{fill:url(#b);}</style><linearGradient id="b" x1="-17.68" y1="30.23" x2="162.71" y2="119.96" gradientTransform="translate(0 150) scale(1 -1)" gradientUnits="userSpaceOnUse"><stop offset="0" stop-color="#7622e1"/><stop offset="1" stop-color="#6266f9"/></linearGradient></defs><path class="d" d="m98.93,49.29v24.82c0,13.71-11.11,24.82-24.82,24.82s-24.82-11.11-24.82-24.82,11.11-24.82,24.82-24.82h24.82V0h-24.82C33.18,0,0,33.18,0,74.11s33.18,74.11,74.11,74.11,74.11-33.18,74.11-74.11v-24.82h-49.29Z"/><path class="c" d="m176.2,74.03c0-26.47,20.27-45.6,47.5-45.6,14.44,0,26.85,5.19,35.09,14.82l-10.64,10.01c-6.46-6.97-14.44-10.39-23.68-10.39-18.37,0-31.67,12.92-31.67,31.16s13.3,31.16,31.67,31.16c9.25,0,17.23-3.42,23.68-10.51l10.64,10.14c-8.23,9.63-20.65,14.82-35.22,14.82-27.1,0-47.37-19.12-47.37-45.6Z"/><path class="c" d="m329.67,78.71v39.65h-14.95v-8.23c-3.8,5.83-11.15,9.12-21.28,9.12-15.45,0-25.21-8.48-25.21-20.27s7.6-20.14,28.12-20.14h17.48v-1.01c0-9.25-5.58-14.69-16.85-14.69-7.6,0-15.45,2.54-20.52,6.71l-6.21-11.52c7.22-5.57,17.73-8.36,28.63-8.36,19.51,0,30.78,9.25,30.78,28.75Zm-15.83,18.5v-7.85h-16.34c-10.77,0-13.68,4.05-13.68,8.99,0,5.7,4.81,9.38,12.92,9.38s14.44-3.55,17.1-10.51h0Z"/><path class="c" d="m405.21,50.72v67.64h-15.07v-8.61c-5.06,6.21-13.05,9.5-21.79,9.5-17.36,0-29.13-9.5-29.13-29.89v-38.64h15.83v36.48c0,12.28,5.83,18.11,15.83,18.11,11.02,0,18.49-6.84,18.49-20.4v-34.2h15.83v.02Z"/><path class="c" d="m414.6,111.65l6.08-12.03c5.95,3.93,15.07,6.71,23.56,6.71,10.01,0,14.19-2.79,14.19-7.47,0-12.92-41.8-.76-41.8-27.74,0-12.79,11.52-21.16,29.76-21.16,8.99,0,19.25,2.16,25.33,5.83l-6.08,12.03c-6.46-3.8-12.92-5.06-19.38-5.06-9.63,0-14.19,3.17-14.19,7.6,0,13.68,41.8,1.52,41.8,28,0,12.67-11.65,20.9-30.65,20.9-11.27,0-22.54-3.29-28.63-7.6h0Z"/><path class="c" d="m483.43,50.72h15.83v67.64h-15.83V50.72Z"/><path class="c" d="m482.82,36.96c0-4.51,3.65-8.05,8.59-8.05s8.59,3.33,8.59,7.73c0,4.72-3.54,8.38-8.59,8.38s-8.59-3.54-8.59-8.06Z"/></svg>